<mxfile host="app.diagrams.net" agent="Mozilla/5.0 (Windows NT 10.0; Win64; x64) AppleWebKit/537.36 (KHTML, like Gecko) Chrome/131.0.0.0 Safari/537.36" version="25.0.3">
  <diagram name="Page-1" id="gYPdV5KYoYjTxZCbX4Au">
    <mxGraphModel dx="3247" dy="1989" grid="1" gridSize="10" guides="1" tooltips="1" connect="1" arrows="1" fold="1" page="1" pageScale="1" pageWidth="1654" pageHeight="1169" math="0" shadow="0">
      <root>
        <mxCell id="0" />
        <mxCell id="1" parent="0" />
        <mxCell id="qkAYrCaB-duEuZqhV6VB-1" value="&lt;font&gt;0123456789012345678901234567890123456789012345678901234567890123456789012345678901234567890123456789012345678901234567890123456789012&lt;/font&gt;" style="text;html=1;align=left;verticalAlign=middle;resizable=0;points=[];autosize=1;strokeColor=none;fillColor=default;fontFamily=Lucida Console;fontSize=14;" parent="1" vertex="1">
          <mxGeometry x="10" y="-20" width="1150" height="30" as="geometry" />
        </mxCell>
        <mxCell id="qkAYrCaB-duEuZqhV6VB-2" value="&lt;font&gt;0&amp;nbsp; &amp;nbsp; &amp;nbsp; &amp;nbsp; &amp;nbsp;10&amp;nbsp; &amp;nbsp; &amp;nbsp; &amp;nbsp; 20&amp;nbsp; &amp;nbsp; &amp;nbsp; &amp;nbsp; 30&amp;nbsp; &amp;nbsp; &amp;nbsp; &amp;nbsp; 40&amp;nbsp; &amp;nbsp; &amp;nbsp; &amp;nbsp; 50&amp;nbsp; &amp;nbsp; &amp;nbsp; &amp;nbsp; 60&amp;nbsp; &amp;nbsp; &amp;nbsp; &amp;nbsp; 70&amp;nbsp; &amp;nbsp; &amp;nbsp; &amp;nbsp; 80&amp;nbsp; &amp;nbsp; &amp;nbsp; &amp;nbsp; 90&amp;nbsp; &amp;nbsp; &amp;nbsp; &amp;nbsp; 100&amp;nbsp; &amp;nbsp; &amp;nbsp; &amp;nbsp;110&amp;nbsp; &amp;nbsp; &amp;nbsp; &amp;nbsp;120&amp;nbsp; &amp;nbsp; &amp;nbsp; &amp;nbsp; &amp;nbsp;132&amp;nbsp;&lt;/font&gt;" style="text;html=1;align=left;verticalAlign=middle;resizable=0;points=[];autosize=1;strokeColor=none;fillColor=default;fontFamily=Lucida Console;fontSize=14;" parent="1" vertex="1">
          <mxGeometry x="10" y="-39" width="1170" height="30" as="geometry" />
        </mxCell>
        <mxCell id="0JCC86L8l436ZXqpCiF8-2" value="&lt;div&gt;&lt;br&gt;&lt;/div&gt;&lt;div&gt;&lt;br&gt;&lt;/div&gt;&lt;div&gt;&lt;br&gt;&lt;/div&gt;&lt;div&gt;&lt;br&gt;&lt;/div&gt;&lt;div&gt;&lt;br&gt;&lt;/div&gt;&lt;div&gt;&lt;br&gt;&lt;/div&gt;&lt;div&gt;&lt;br&gt;&lt;/div&gt;&lt;div&gt;&lt;br&gt;&lt;/div&gt;&lt;div&gt;&lt;br&gt;&lt;/div&gt;&lt;br&gt;&lt;div&gt;10&lt;/div&gt;&lt;div&gt;&lt;br&gt;&lt;/div&gt;&lt;div&gt;&lt;br&gt;&lt;/div&gt;&lt;div&gt;&lt;br&gt;&lt;/div&gt;&lt;div&gt;&lt;br&gt;&lt;/div&gt;&lt;div&gt;&lt;br&gt;&lt;/div&gt;&lt;div&gt;&lt;br&gt;&lt;/div&gt;&lt;div&gt;&lt;br&gt;&lt;/div&gt;&lt;div&gt;&lt;br&gt;&lt;/div&gt;&lt;div&gt;&lt;br&gt;&lt;/div&gt;&lt;div&gt;20&lt;/div&gt;&lt;div&gt;&lt;br&gt;&lt;/div&gt;&lt;div&gt;&lt;br&gt;&lt;/div&gt;&lt;div&gt;&lt;br&gt;&lt;/div&gt;&lt;div&gt;&lt;br&gt;&lt;/div&gt;&lt;div&gt;&lt;br&gt;&lt;/div&gt;&lt;div&gt;&lt;br&gt;&lt;/div&gt;&lt;div&gt;&lt;br&gt;&lt;/div&gt;&lt;div&gt;&lt;br&gt;&lt;/div&gt;&lt;div&gt;&lt;br&gt;&lt;/div&gt;&lt;div&gt;30&lt;/div&gt;&lt;div&gt;&lt;br&gt;&lt;/div&gt;&lt;div&gt;&lt;br&gt;&lt;/div&gt;&lt;div&gt;&lt;br&gt;&lt;/div&gt;&lt;div&gt;&lt;br&gt;&lt;/div&gt;&lt;div&gt;&lt;br&gt;&lt;/div&gt;&lt;div&gt;&lt;br&gt;&lt;/div&gt;&lt;div&gt;&lt;br&gt;&lt;/div&gt;&lt;div&gt;&lt;br&gt;&lt;/div&gt;&lt;div&gt;&lt;br&gt;&lt;/div&gt;&lt;div&gt;40&lt;/div&gt;&lt;div&gt;&lt;br&gt;&lt;/div&gt;&lt;div&gt;&lt;br&gt;&lt;/div&gt;&lt;div&gt;43&lt;/div&gt;&lt;div&gt;&lt;br&gt;&lt;/div&gt;&lt;div&gt;&lt;br&gt;&lt;/div&gt;&lt;div&gt;&lt;br&gt;&lt;/div&gt;" style="text;whiteSpace=wrap;html=1;align=right;fontFamily=Lucida Console;fontSize=14;" parent="1" vertex="1">
          <mxGeometry x="-18" y="-19" width="24" height="240" as="geometry" />
        </mxCell>
        <mxCell id="qkAYrCaB-duEuZqhV6VB-3" value="0&lt;div&gt;1&lt;/div&gt;&lt;div&gt;2&lt;/div&gt;&lt;div&gt;3&lt;/div&gt;&lt;div&gt;4&lt;/div&gt;&lt;div&gt;5&lt;/div&gt;&lt;div&gt;6&lt;/div&gt;&lt;div&gt;7&lt;/div&gt;&lt;div&gt;8&lt;/div&gt;&lt;div&gt;9&lt;/div&gt;&lt;div&gt;0&lt;/div&gt;&lt;div&gt;1&lt;/div&gt;&lt;div&gt;2&lt;/div&gt;&lt;div&gt;3&lt;/div&gt;&lt;div&gt;4&lt;/div&gt;&lt;div&gt;5&lt;/div&gt;&lt;div&gt;6&lt;/div&gt;&lt;div&gt;7&lt;/div&gt;&lt;div&gt;8&lt;/div&gt;&lt;div&gt;9&lt;/div&gt;&lt;div&gt;0&lt;/div&gt;&lt;div&gt;1&lt;/div&gt;&lt;div&gt;2&lt;/div&gt;&lt;div&gt;3&lt;/div&gt;&lt;div&gt;4&lt;/div&gt;&lt;div&gt;5&lt;/div&gt;&lt;div&gt;6&lt;/div&gt;&lt;div&gt;7&lt;/div&gt;&lt;div&gt;8&lt;/div&gt;&lt;div&gt;9&lt;/div&gt;&lt;div&gt;0&lt;/div&gt;&lt;div&gt;1&lt;/div&gt;&lt;div&gt;2&lt;/div&gt;&lt;div&gt;3&lt;/div&gt;&lt;div&gt;4&lt;/div&gt;&lt;div&gt;5&lt;/div&gt;&lt;div&gt;6&lt;/div&gt;&lt;div&gt;7&lt;/div&gt;&lt;div&gt;8&lt;/div&gt;&lt;div&gt;9&lt;/div&gt;&lt;div&gt;0&lt;/div&gt;&lt;div&gt;1&lt;/div&gt;&lt;div&gt;2&lt;/div&gt;&lt;div&gt;3&lt;/div&gt;&lt;div&gt;&lt;br&gt;&lt;/div&gt;&lt;div&gt;&lt;br&gt;&lt;/div&gt;" style="text;whiteSpace=wrap;html=1;fontFamily=Lucida Console;fontSize=14;" parent="1" vertex="1">
          <mxGeometry x="10" y="-19" width="24" height="240" as="geometry" />
        </mxCell>
        <mxCell id="LSzqvkUK99cfRbp6Mw0R-84" value="&lt;div&gt;&lt;font color=&quot;#f8cecc&quot;&gt;BLK&lt;/font&gt;&lt;/div&gt;&lt;div&gt;&lt;font color=&quot;#ea6b66&quot;&gt;RED&lt;/font&gt;&lt;/div&gt;&lt;div&gt;&lt;span style=&quot;color: rgb(0, 204, 0);&quot;&gt;GRN&lt;/span&gt;&lt;/div&gt;&lt;div&gt;&lt;font color=&quot;#495411&quot;&gt;YEL&lt;/font&gt;&lt;/div&gt;&lt;div&gt;&lt;font color=&quot;#3399ff&quot;&gt;BLU&lt;/font&gt;&lt;/div&gt;&lt;div&gt;&lt;font color=&quot;#ff33ff&quot;&gt;MAG&lt;/font&gt;&lt;/div&gt;&lt;div&gt;&lt;font color=&quot;#004c99&quot;&gt;CYN&lt;/font&gt;&lt;/div&gt;&lt;div&gt;WHT&lt;/div&gt;&lt;div&gt;&lt;br&gt;&lt;/div&gt;" style="text;html=1;align=left;verticalAlign=middle;resizable=0;points=[];autosize=1;strokeColor=none;fillColor=default;fontFamily=Lucida Console;fontSize=14;" parent="1" vertex="1">
          <mxGeometry x="-290" y="505" width="50" height="160" as="geometry" />
        </mxCell>
        <mxCell id="LSzqvkUK99cfRbp6Mw0R-85" value="&lt;div&gt;&lt;font color=&quot;#f8cecc&quot;&gt;BLK&lt;/font&gt;&lt;/div&gt;&lt;div&gt;&lt;font color=&quot;#ea6b66&quot;&gt;ERROR&lt;/font&gt;&lt;/div&gt;&lt;div&gt;&lt;span style=&quot;color: rgb(0, 204, 0);&quot;&gt;RUNNING/ALL GOOD&lt;/span&gt;&lt;/div&gt;&lt;div&gt;&lt;font color=&quot;#495411&quot;&gt;WARNING&lt;/font&gt;&lt;/div&gt;&lt;div&gt;&lt;font color=&quot;#3399ff&quot;&gt;NORMAL TEXT&lt;/font&gt;&lt;/div&gt;&lt;div&gt;&lt;font color=&quot;#ff33ff&quot;&gt;HEADINGS&lt;/font&gt;&lt;/div&gt;&lt;div&gt;&lt;span style=&quot;background-color: initial;&quot;&gt;&lt;font color=&quot;#004c99&quot;&gt;SUBHEADINGS&lt;/font&gt;&lt;/span&gt;&lt;/div&gt;&lt;div&gt;&lt;span style=&quot;background-color: initial;&quot;&gt;FRAMES&lt;/span&gt;&lt;/div&gt;&lt;div&gt;&lt;br&gt;&lt;/div&gt;" style="text;html=1;align=left;verticalAlign=middle;resizable=0;points=[];autosize=1;strokeColor=none;fillColor=default;fontFamily=Lucida Console;fontSize=14;" parent="1" vertex="1">
          <mxGeometry x="-250" y="505" width="160" height="160" as="geometry" />
        </mxCell>
        <mxCell id="0JCC86L8l436ZXqpCiF8-6" value="&lt;div&gt;&lt;div&gt;&lt;span style=&quot;color: rgb(0, 76, 153); background-color: initial;&quot;&gt;&lt;b&gt;Position&lt;/b&gt;&lt;/span&gt;&lt;/div&gt;&lt;/div&gt;&lt;div&gt;&lt;font color=&quot;#3399ff&quot;&gt;t&amp;nbsp; &amp;nbsp;|&lt;/font&gt;&lt;font color=&quot;#3399ff&quot; style=&quot;background-color: initial;&quot;&gt;&amp;nbsp;θ (deg)&amp;nbsp;&lt;/font&gt;&lt;/div&gt;&lt;div&gt;&lt;font style=&quot;background-color: initial;&quot; color=&quot;#3399ff&quot;&gt;T-2 | 90&lt;/font&gt;&lt;span style=&quot;background-color: initial; color: rgb(51, 153, 255);&quot;&gt;&amp;nbsp; &amp;nbsp; &amp;nbsp; &amp;nbsp;&amp;nbsp;&lt;/span&gt;&lt;/div&gt;&lt;div&gt;&lt;font color=&quot;#3399ff&quot;&gt;T-1 | 180&amp;nbsp; &amp;nbsp; &amp;nbsp; &amp;nbsp;&amp;nbsp;&lt;/font&gt;&lt;/div&gt;&lt;div&gt;&lt;font color=&quot;#00cc00&quot;&gt;T&amp;nbsp; &amp;nbsp;| 35&amp;nbsp; &amp;nbsp; &amp;nbsp; &amp;nbsp;&amp;nbsp;&lt;/font&gt;&lt;/div&gt;&lt;div&gt;&lt;font color=&quot;#3399ff&quot;&gt;T+1 | 15&amp;nbsp; &amp;nbsp; &amp;nbsp; &amp;nbsp;&amp;nbsp;&lt;/font&gt;&lt;/div&gt;&lt;div&gt;&lt;font color=&quot;#3399ff&quot;&gt;T+2 | 100&amp;nbsp; &amp;nbsp; &amp;nbsp; &amp;nbsp;&amp;nbsp;&lt;/font&gt;&lt;/div&gt;&lt;div&gt;&lt;br&gt;&lt;/div&gt;" style="text;html=1;align=left;verticalAlign=middle;resizable=0;points=[];autosize=1;strokeColor=none;fillColor=default;fontFamily=Lucida Console;fontSize=14;" parent="1" vertex="1">
          <mxGeometry x="-620" y="665" width="170" height="150" as="geometry" />
        </mxCell>
        <mxCell id="0JCC86L8l436ZXqpCiF8-7" value="&lt;div&gt;&lt;div&gt;&lt;span style=&quot;color: rgb(0, 76, 153); background-color: initial;&quot;&gt;&lt;b&gt;Torque&lt;/b&gt;&lt;/span&gt;&lt;/div&gt;&lt;/div&gt;&lt;div&gt;&lt;font color=&quot;#3399ff&quot;&gt;t&amp;nbsp; &amp;nbsp;|&amp;nbsp;&amp;nbsp;&lt;/font&gt;&lt;font color=&quot;#3399ff&quot; style=&quot;background-color: initial;&quot;&gt;T(Nm) |&amp;nbsp;&amp;nbsp;&lt;/font&gt;&lt;span style=&quot;background-color: initial;&quot;&gt;&lt;font color=&quot;#3399ff&quot;&gt;△&lt;/font&gt;&lt;/span&gt;&lt;font color=&quot;#3399ff&quot;&gt;T(&lt;/font&gt;&lt;span style=&quot;background-color: initial; color: rgb(51, 153, 255);&quot;&gt;s) | Tdur (m)&lt;/span&gt;&lt;/div&gt;&lt;div&gt;&lt;font style=&quot;background-color: initial;&quot; color=&quot;#3399ff&quot;&gt;T-2 |&amp;nbsp;&lt;/font&gt;&lt;span style=&quot;background-color: initial; color: rgb(51, 153, 255);&quot;&gt;10&amp;nbsp; &amp;nbsp; &amp;nbsp;|&amp;nbsp; 60&amp;nbsp; &amp;nbsp; &amp;nbsp;| 5&lt;/span&gt;&lt;/div&gt;&lt;div&gt;&lt;font color=&quot;#3399ff&quot;&gt;T-1 | 15&amp;nbsp; &amp;nbsp; &amp;nbsp;|&amp;nbsp; 10&amp;nbsp; &amp;nbsp; &amp;nbsp;| 12&lt;/font&gt;&lt;/div&gt;&lt;div&gt;&lt;font color=&quot;#00cc00&quot;&gt;T&amp;nbsp; &amp;nbsp;| 05&amp;nbsp; &amp;nbsp; &amp;nbsp;|&amp;nbsp; inf&amp;nbsp; &amp;nbsp; | n/a&lt;/font&gt;&lt;/div&gt;&lt;div&gt;&lt;font color=&quot;#3399ff&quot;&gt;T+1 | 10&amp;nbsp; &amp;nbsp; &amp;nbsp;|&amp;nbsp; 10&amp;nbsp; &amp;nbsp; &amp;nbsp;| 45&lt;/font&gt;&lt;/div&gt;&lt;div&gt;&lt;font color=&quot;#3399ff&quot;&gt;T+2 | 15&amp;nbsp; &amp;nbsp; &amp;nbsp;|&amp;nbsp; 05&amp;nbsp; &amp;nbsp; &amp;nbsp;|90&lt;/font&gt;&lt;/div&gt;&lt;div&gt;&lt;br&gt;&lt;/div&gt;" style="text;html=1;align=left;verticalAlign=middle;resizable=0;points=[];autosize=1;strokeColor=none;fillColor=default;fontFamily=Lucida Console;fontSize=14;" parent="1" vertex="1">
          <mxGeometry x="-619" y="828" width="300" height="150" as="geometry" />
        </mxCell>
        <mxCell id="Y0vUoYvXCPpR4QLky-6E-5" value="&lt;font style=&quot;font-size: 14px;&quot; face=&quot;Lucida Console&quot;&gt;Replace with appropriate setpoint group&lt;/font&gt;&lt;div&gt;&lt;font style=&quot;font-size: 14px;&quot; face=&quot;Lucida Console&quot;&gt;&lt;br&gt;&lt;/font&gt;&lt;/div&gt;" style="text;strokeColor=none;align=center;fillColor=none;html=1;verticalAlign=middle;whiteSpace=wrap;rounded=0;" parent="1" vertex="1">
          <mxGeometry x="-270" y="850" width="60" height="30" as="geometry" />
        </mxCell>
        <mxCell id="Y0vUoYvXCPpR4QLky-6E-9" value="&lt;div&gt;&lt;font face=&quot;Lucida Console&quot; style=&quot;font-size: 14px;&quot;&gt;O : On/Off&lt;/font&gt;&lt;/div&gt;&lt;div&gt;&lt;font face=&quot;Lucida Console&quot; style=&quot;font-size: 14px;&quot;&gt;N : Normal&lt;/font&gt;&lt;/div&gt;&lt;div&gt;&lt;font face=&quot;Lucida Console&quot; style=&quot;font-size: 14px;&quot;&gt;S : Safety inhibit&lt;/font&gt;&lt;/div&gt;&lt;div&gt;&lt;font face=&quot;Lucida Console&quot; style=&quot;font-size: 14px;&quot;&gt;T : Standby&lt;/font&gt;&lt;/div&gt;&lt;div&gt;&lt;font face=&quot;Lucida Console&quot; style=&quot;font-size: 14px;&quot;&gt;I : Position&lt;/font&gt;&lt;/div&gt;&lt;div&gt;&lt;font face=&quot;Lucida Console&quot; style=&quot;font-size: 14px;&quot;&gt;Q : Torque&lt;/font&gt;&lt;/div&gt;&lt;div&gt;&lt;font face=&quot;Lucida Console&quot; style=&quot;font-size: 14px;&quot;&gt;&lt;strike&gt;E : not used&lt;/strike&gt;&lt;/font&gt;&lt;/div&gt;&lt;div&gt;&lt;font face=&quot;Lucida Console&quot;&gt;&lt;span style=&quot;font-size: 14px;&quot;&gt;A : Safe stop&lt;/span&gt;&lt;/font&gt;&lt;/div&gt;&lt;div&gt;&lt;font face=&quot;Lucida Console&quot; style=&quot;font-size: 14px;&quot;&gt;P : Park&lt;/font&gt;&lt;/div&gt;&lt;div&gt;&lt;font face=&quot;Lucida Console&quot; style=&quot;font-size: 14px;&quot;&gt;L : Open-loop&lt;/font&gt;&lt;/div&gt;&lt;div&gt;&lt;font face=&quot;Lucida Console&quot; style=&quot;font-size: 14px;&quot;&gt;C : Closed-loop&lt;/font&gt;&lt;/div&gt;&lt;div&gt;&lt;font face=&quot;Lucida Console&quot; style=&quot;font-size: 14px;&quot;&gt;T : PID tuning&lt;/font&gt;&lt;/div&gt;&lt;div&gt;&lt;font face=&quot;Lucida Console&quot; style=&quot;font-size: 14px;&quot;&gt;K : Clockwise&lt;/font&gt;&lt;/div&gt;&lt;div&gt;&lt;font face=&quot;Lucida Console&quot; style=&quot;font-size: 14px;&quot;&gt;W : Anti-clockwise&lt;/font&gt;&lt;/div&gt;&lt;div&gt;&lt;span style=&quot;font-size: 14px; font-family: &amp;quot;Lucida Console&amp;quot;; background-color: initial;&quot;&gt;F : Infinity&lt;/span&gt;&lt;/div&gt;" style="text;strokeColor=none;align=left;fillColor=none;html=1;verticalAlign=middle;whiteSpace=wrap;rounded=0;" parent="1" vertex="1">
          <mxGeometry x="-520" y="307" width="230" height="370" as="geometry" />
        </mxCell>
        <mxCell id="oLKlljd090616Nfrw5Nb-1" value="" style="swimlane;startSize=0;fontFamily=Lucida Console;fontSize=14;" parent="1" vertex="1">
          <mxGeometry x="20" width="1110" height="720" as="geometry" />
        </mxCell>
        <mxCell id="LSzqvkUK99cfRbp6Mw0R-2" value="&#xa;" style="swimlane;startSize=0;fontFamily=Lucida Console;fontSize=14;" parent="oLKlljd090616Nfrw5Nb-1" vertex="1">
          <mxGeometry y="77" width="260" height="643" as="geometry" />
        </mxCell>
        <mxCell id="LSzqvkUK99cfRbp6Mw0R-15" value="&lt;div&gt;&lt;span style=&quot;color: rgb(0, 76, 153); background-color: initial;&quot;&gt;&lt;b&gt;Mode of operation&amp;nbsp;&lt;/b&gt;&lt;/span&gt;&lt;/div&gt;&lt;div&gt;&lt;font color=&quot;#3399ff&quot;&gt;⏻Power &lt;/font&gt;&lt;font color=&quot;#00cc00&quot;&gt;[O]n&lt;/font&gt;&lt;font color=&quot;#3399ff&quot;&gt;/&lt;/font&gt;&lt;font color=&quot;#495411&quot;&gt;[O]ff&lt;/font&gt;&lt;/div&gt;&lt;div&gt;&lt;div&gt;&lt;font color=&quot;#3399ff&quot;&gt;[N]ormal&amp;nbsp;&lt;/font&gt;&lt;/div&gt;&lt;div style=&quot;color: rgb(51, 153, 255);&quot;&gt;[S]afety Inhibit&lt;/div&gt;&lt;/div&gt;" style="text;html=1;align=left;verticalAlign=middle;resizable=0;points=[];autosize=1;strokeColor=none;fillColor=default;fontFamily=Lucida Console;fontSize=14;" parent="LSzqvkUK99cfRbp6Mw0R-2" vertex="1">
          <mxGeometry x="20" y="30" width="180" height="80" as="geometry" />
        </mxCell>
        <mxCell id="LSzqvkUK99cfRbp6Mw0R-17" value="&lt;div&gt;&lt;span style=&quot;color: rgb(0, 76, 153); background-color: initial;&quot;&gt;&lt;b&gt;Normal modes of operation&lt;/b&gt;&lt;/span&gt;&lt;/div&gt;&lt;div&gt;&lt;span style=&quot;color: rgb(51, 153, 255); background-color: initial;&quot;&gt;Power Up&lt;/span&gt;&lt;/div&gt;&lt;div&gt;&lt;span style=&quot;background-color: initial;&quot;&gt;&lt;div style=&quot;color: rgb(51, 153, 255);&quot;&gt;&amp;nbsp; &amp;nbsp;S[T]andby&lt;/div&gt;&lt;/span&gt;&lt;span style=&quot;background-color: initial;&quot;&gt;&lt;div style=&quot;color: rgb(51, 153, 255);&quot;&gt;&lt;span style=&quot;color: rgb(0, 204, 0); background-color: initial;&quot;&gt;✔&amp;nbsp;&lt;/span&gt;[R]ate&amp;nbsp;&lt;/div&gt;&lt;div style=&quot;color: rgb(51, 153, 255);&quot;&gt;&amp;nbsp; &amp;nbsp;Pos[I]tion&lt;/div&gt;&lt;div style=&quot;color: rgb(51, 153, 255);&quot;&gt;&amp;nbsp; &amp;nbsp;Tor[Q]ue&amp;nbsp;&lt;/div&gt;&lt;div style=&quot;&quot;&gt;&lt;font style=&quot;background-color: initial;&quot; color=&quot;#00cc00&quot;&gt;⏹&amp;nbsp;&amp;nbsp;&lt;/font&gt;&lt;font style=&quot;background-color: initial;&quot; color=&quot;#00cc00&quot;&gt;S[A]fe&amp;nbsp;&lt;/font&gt;&lt;span style=&quot;color: rgb(51, 153, 255); background-color: initial;&quot;&gt;Stop&lt;/span&gt;&lt;/div&gt;&lt;/span&gt;&lt;span style=&quot;background-color: initial;&quot;&gt;&lt;font color=&quot;#3399ff&quot;&gt;&lt;div style=&quot;&quot;&gt;&lt;span style=&quot;background-color: initial; color: rgb(0, 0, 0);&quot;&gt;&lt;font color=&quot;#3399ff&quot;&gt;⌂&amp;nbsp; [&lt;/font&gt;&lt;/span&gt;P]ark&amp;nbsp;&lt;/div&gt;&lt;div style=&quot;&quot;&gt;&amp;nbsp; &amp;nbsp;Inhibit&lt;/div&gt;&lt;div style=&quot;&quot;&gt;&amp;nbsp; &amp;nbsp;Warning&lt;/div&gt;&lt;div style=&quot;&quot;&gt;&amp;nbsp; &amp;nbsp;Fault&amp;nbsp;&lt;/div&gt;&lt;/font&gt;&lt;/span&gt;&lt;/div&gt;" style="text;html=1;align=left;verticalAlign=middle;resizable=0;points=[];autosize=1;strokeColor=none;fillColor=default;fontFamily=Lucida Console;fontSize=14;" parent="LSzqvkUK99cfRbp6Mw0R-2" vertex="1">
          <mxGeometry x="20" y="130" width="240" height="200" as="geometry" />
        </mxCell>
        <mxCell id="LSzqvkUK99cfRbp6Mw0R-18" value="&lt;span style=&quot;color: rgb(255, 51, 255);&quot;&gt;&lt;b&gt;[1] RCU&lt;/b&gt;&lt;/span&gt;" style="text;html=1;align=left;verticalAlign=middle;resizable=0;points=[];autosize=1;strokeColor=none;fillColor=default;fontFamily=Lucida Console;fontSize=14;" parent="LSzqvkUK99cfRbp6Mw0R-2" vertex="1">
          <mxGeometry x="70" y="1" width="80" height="30" as="geometry" />
        </mxCell>
        <mxCell id="XM46SwbWzzAtsz8LBBQU-5" value="&lt;div&gt;&lt;div&gt;&lt;span style=&quot;color: rgb(0, 76, 153); background-color: initial;&quot;&gt;&lt;b&gt;Control modes&lt;/b&gt;&lt;/span&gt;&lt;/div&gt;&lt;/div&gt;&lt;div&gt;&lt;span style=&quot;background-color: initial; color: rgb(0, 204, 0);&quot;&gt;✔&amp;nbsp;&amp;nbsp;&lt;/span&gt;&lt;span style=&quot;color: rgb(51, 153, 255); background-color: initial;&quot;&gt;Open-[L]oop&lt;/span&gt;&lt;/div&gt;&lt;div&gt;&lt;font color=&quot;#3399ff&quot;&gt;&amp;nbsp; &amp;nbsp;[C]losed-loop&lt;/font&gt;&lt;/div&gt;&lt;div&gt;&lt;font color=&quot;#3399ff&quot;&gt;&amp;nbsp; &amp;nbsp;PID [T]uning&lt;/font&gt;&lt;/div&gt;&lt;div&gt;&lt;br&gt;&lt;/div&gt;" style="text;html=1;align=left;verticalAlign=middle;resizable=0;points=[];autosize=1;strokeColor=none;fillColor=default;fontFamily=Lucida Console;fontSize=14;" parent="LSzqvkUK99cfRbp6Mw0R-2" vertex="1">
          <mxGeometry x="10" y="347" width="160" height="100" as="geometry" />
        </mxCell>
        <mxCell id="oLKlljd090616Nfrw5Nb-26" value="&lt;div&gt;&lt;div&gt;&lt;span style=&quot;color: rgb(0, 76, 153); background-color: initial;&quot;&gt;&lt;b&gt;Rotation&lt;/b&gt;&lt;/span&gt;&lt;/div&gt;&lt;/div&gt;&lt;div&gt;&lt;font color=&quot;#3399ff&quot;&gt;&amp;nbsp; &lt;/font&gt;&lt;span style=&quot;background-color: initial;&quot;&gt;&lt;font color=&quot;#3399ff&quot;&gt;⟳&amp;nbsp;&lt;/font&gt;&lt;/span&gt;&lt;span style=&quot;color: rgb(51, 153, 255); background-color: initial;&quot;&gt;Cloc[K]wise&lt;/span&gt;&lt;/div&gt;&lt;div&gt;&lt;span style=&quot;background-color: initial; color: rgb(0, 204, 0);&quot;&gt;✔&amp;nbsp;&lt;/span&gt;&lt;span style=&quot;background-color: initial;&quot;&gt;&lt;font color=&quot;#3399ff&quot;&gt;⟲&amp;nbsp;&lt;/font&gt;&lt;/span&gt;&lt;span style=&quot;background-color: initial; color: rgb(51, 153, 255);&quot;&gt;Anti-clock[W]ise&lt;/span&gt;&lt;/div&gt;" style="text;html=1;align=left;verticalAlign=middle;resizable=0;points=[];autosize=1;strokeColor=none;fillColor=default;fontFamily=Lucida Console;fontSize=14;" parent="LSzqvkUK99cfRbp6Mw0R-2" vertex="1">
          <mxGeometry y="448" width="200" height="60" as="geometry" />
        </mxCell>
        <mxCell id="oLKlljd090616Nfrw5Nb-27" value="&lt;div&gt;&lt;br&gt;&lt;/div&gt;&lt;div&gt;&lt;span style=&quot;color: rgb(0, 76, 153);&quot;&gt;&lt;b&gt;Voltage&lt;/b&gt;&lt;/span&gt;&lt;/div&gt;&lt;div&gt;&lt;font color=&quot;#3399ff&quot;&gt;300 V&amp;nbsp; |&amp;nbsp;&amp;nbsp;&lt;/font&gt;&lt;span style=&quot;color: rgb(0, 204, 0);&quot;&gt;298.5&lt;/span&gt;&lt;font color=&quot;#3399ff&quot;&gt;&amp;nbsp;&lt;/font&gt;&lt;/div&gt;&lt;div&gt;&lt;span style=&quot;color: rgb(51, 153, 255);&quot;&gt;24 V&amp;nbsp; &amp;nbsp;|&amp;nbsp; &amp;nbsp;&lt;/span&gt;&lt;span style=&quot;color: rgb(234, 107, 102); background-color: initial;&quot;&gt;15.0&lt;/span&gt;&lt;/div&gt;&lt;div&gt;&lt;br&gt;&lt;/div&gt;" style="text;html=1;align=left;verticalAlign=middle;resizable=0;points=[];autosize=1;strokeColor=none;fillColor=default;fontFamily=Lucida Console;fontSize=14;" parent="LSzqvkUK99cfRbp6Mw0R-2" vertex="1">
          <mxGeometry y="513" width="160" height="100" as="geometry" />
        </mxCell>
        <mxCell id="oLKlljd090616Nfrw5Nb-9" value="&lt;font color=&quot;#3399ff&quot;&gt;&lt;b&gt;M-TEK&lt;/b&gt;&amp;nbsp; &amp;nbsp; &lt;/font&gt;&lt;font color=&quot;#ff33ff&quot;&gt;&lt;b&gt;Radar Rotator Sub-System&amp;nbsp; &lt;/b&gt;&amp;nbsp;&amp;nbsp;&lt;/font&gt;&lt;span style=&quot;color: rgb(51, 153, 255);&quot;&gt;2024-12-01&amp;nbsp; &amp;nbsp; 00:00:00&amp;nbsp; &amp;nbsp;&amp;nbsp;&lt;/span&gt;&lt;font color=&quot;#00cc00&quot;&gt;⏻&lt;/font&gt;&lt;span style=&quot;color: rgb(51, 153, 255);&quot;&gt;&amp;nbsp; &amp;nbsp;&amp;nbsp;&lt;/span&gt;&lt;span style=&quot;color: rgb(51, 153, 255);&quot;&gt;⟲&amp;nbsp; &amp;nbsp; Rate&amp;nbsp; &amp;nbsp;&amp;nbsp;&lt;/span&gt;&lt;span style=&quot;background-color: initial;&quot;&gt;&lt;font style=&quot;&quot; color=&quot;#00cc00&quot;&gt;5.1 rpm&amp;nbsp; &amp;nbsp;&amp;nbsp;&lt;/font&gt;&lt;/span&gt;&lt;span style=&quot;background-color: initial;&quot;&gt;&lt;font color=&quot;#ea6b66&quot;&gt;✖&lt;/font&gt;&lt;/span&gt;&lt;font color=&quot;#3399ff&quot;&gt;IBIT&amp;nbsp; &amp;nbsp; &amp;nbsp; &amp;nbsp; &amp;nbsp; &amp;nbsp; &amp;nbsp; &amp;nbsp; &amp;nbsp; &amp;nbsp; &amp;nbsp; &amp;nbsp;&lt;span style=&quot;background-color: initial;&quot;&gt;&amp;nbsp; &lt;/span&gt;&lt;/font&gt;&lt;span style=&quot;color: rgb(51, 153, 255); background-color: initial;&quot;&gt;[&lt;/span&gt;&lt;span style=&quot;color: rgb(51, 153, 255);&quot;&gt;uart]&lt;/span&gt;" style="text;html=1;align=left;verticalAlign=middle;resizable=0;points=[];autosize=1;strokeColor=none;fillColor=default;labelBackgroundColor=none;fontFamily=Lucida Console;fontSize=14;" parent="oLKlljd090616Nfrw5Nb-1" vertex="1">
          <mxGeometry y="4" width="1120" height="30" as="geometry" />
        </mxCell>
        <mxCell id="oLKlljd090616Nfrw5Nb-10" value="&lt;font color=&quot;#3399ff&quot;&gt;Message line:...&lt;/font&gt;" style="text;html=1;align=left;verticalAlign=middle;resizable=0;points=[];autosize=1;strokeColor=none;fillColor=default;fontFamily=Lucida Console;fontSize=14;" parent="oLKlljd090616Nfrw5Nb-1" vertex="1">
          <mxGeometry y="30" width="160" height="30" as="geometry" />
        </mxCell>
        <mxCell id="Y0vUoYvXCPpR4QLky-6E-8" value="&lt;div&gt;&lt;font color=&quot;#3399ff&quot;&gt;____&amp;nbsp; ____&amp;nbsp; ____ ____&lt;/font&gt;&lt;/div&gt;&lt;div&gt;&lt;font color=&quot;#3399ff&quot;&gt;| _ \ | _ \ / ___ / ___|&lt;/font&gt;&lt;/div&gt;&lt;div&gt;&lt;font color=&quot;#3399ff&quot;&gt;| |_) | |_) \___ \___ \&lt;/font&gt;&lt;/div&gt;&lt;div&gt;&lt;font color=&quot;#3399ff&quot;&gt;| _ &amp;lt; | _ &amp;lt; ___) | __) |&lt;/font&gt;&lt;/div&gt;&lt;div&gt;&lt;font color=&quot;#3399ff&quot;&gt;&amp;nbsp; &amp;nbsp; |_ | \_\_ | \_\____ / ____ /&lt;/font&gt;&lt;/div&gt;&lt;div&gt;&lt;br&gt;&lt;/div&gt;" style="text;html=1;align=left;verticalAlign=middle;resizable=0;points=[];autosize=1;strokeColor=none;fillColor=default;fontFamily=Lucida Console;fontSize=14;" parent="oLKlljd090616Nfrw5Nb-1" vertex="1">
          <mxGeometry x="819" y="608" width="290" height="110" as="geometry" />
        </mxCell>
        <mxCell id="LSzqvkUK99cfRbp6Mw0R-61" value="&#xa;" style="swimlane;startSize=0;fontFamily=Lucida Console;fontSize=14;" parent="oLKlljd090616Nfrw5Nb-1" vertex="1">
          <mxGeometry x="560" y="77" width="253" height="338" as="geometry" />
        </mxCell>
        <mxCell id="LSzqvkUK99cfRbp6Mw0R-62" value="&lt;div&gt;&lt;font color=&quot;#3399ff&quot;&gt;xxx&lt;/font&gt;&lt;/div&gt;" style="text;html=1;align=left;verticalAlign=middle;resizable=0;points=[];autosize=1;strokeColor=none;fillColor=default;fontFamily=Lucida Console;fontSize=14;" parent="LSzqvkUK99cfRbp6Mw0R-61" vertex="1">
          <mxGeometry x="20" y="55" width="50" height="30" as="geometry" />
        </mxCell>
        <mxCell id="LSzqvkUK99cfRbp6Mw0R-63" value="&lt;div&gt;&lt;font color=&quot;#3399ff&quot;&gt;xxx&lt;/font&gt;&lt;/div&gt;" style="text;html=1;align=left;verticalAlign=middle;resizable=0;points=[];autosize=1;strokeColor=none;fillColor=default;fontFamily=Lucida Console;fontSize=14;" parent="LSzqvkUK99cfRbp6Mw0R-61" vertex="1">
          <mxGeometry x="20" y="185" width="50" height="30" as="geometry" />
        </mxCell>
        <mxCell id="LSzqvkUK99cfRbp6Mw0R-64" value="&lt;span style=&quot;color: rgb(255, 51, 255);&quot;&gt;&lt;b&gt;[3] RBD&lt;/b&gt;&lt;/span&gt;" style="text;html=1;align=left;verticalAlign=middle;resizable=0;points=[];autosize=1;strokeColor=none;fillColor=default;fontFamily=Lucida Console;fontSize=14;" parent="LSzqvkUK99cfRbp6Mw0R-61" vertex="1">
          <mxGeometry x="70" width="80" height="30" as="geometry" />
        </mxCell>
        <mxCell id="LSzqvkUK99cfRbp6Mw0R-16" value="&lt;div&gt;&lt;font color=&quot;#3399ff&quot;&gt;Brake&lt;/font&gt;&lt;/div&gt;&lt;div&gt;&lt;font color=&quot;#3399ff&quot;&gt;Engage&lt;/font&gt;&lt;/div&gt;&lt;div&gt;&lt;font color=&quot;#3399ff&quot;&gt;Release&lt;/font&gt;&lt;/div&gt;" style="text;html=1;align=left;verticalAlign=middle;resizable=0;points=[];autosize=1;strokeColor=none;fillColor=default;fontFamily=Lucida Console;fontSize=14;" parent="LSzqvkUK99cfRbp6Mw0R-61" vertex="1">
          <mxGeometry x="150" y="55" width="80" height="60" as="geometry" />
        </mxCell>
        <mxCell id="LSzqvkUK99cfRbp6Mw0R-57" value="&#xa;" style="swimlane;startSize=0;fontFamily=Lucida Console;fontSize=14;" parent="oLKlljd090616Nfrw5Nb-1" vertex="1">
          <mxGeometry x="260" y="77" width="300" height="338" as="geometry" />
        </mxCell>
        <mxCell id="LSzqvkUK99cfRbp6Mw0R-58" value="&lt;div&gt;&lt;font color=&quot;#3399ff&quot;&gt;xxx&lt;/font&gt;&lt;/div&gt;" style="text;html=1;align=left;verticalAlign=middle;resizable=0;points=[];autosize=1;strokeColor=none;fillColor=default;fontFamily=Lucida Console;fontSize=14;" parent="LSzqvkUK99cfRbp6Mw0R-57" vertex="1">
          <mxGeometry x="20" y="55" width="50" height="30" as="geometry" />
        </mxCell>
        <mxCell id="LSzqvkUK99cfRbp6Mw0R-59" value="&lt;div&gt;&lt;font color=&quot;#3399ff&quot;&gt;xxx&lt;/font&gt;&lt;/div&gt;" style="text;html=1;align=left;verticalAlign=middle;resizable=0;points=[];autosize=1;strokeColor=none;fillColor=default;fontFamily=Lucida Console;fontSize=14;" parent="LSzqvkUK99cfRbp6Mw0R-57" vertex="1">
          <mxGeometry x="20" y="185" width="50" height="30" as="geometry" />
        </mxCell>
        <mxCell id="LSzqvkUK99cfRbp6Mw0R-60" value="&lt;span style=&quot;color: rgb(255, 51, 255);&quot;&gt;&lt;b&gt;[2] SIU&lt;/b&gt;&lt;/span&gt;" style="text;html=1;align=left;verticalAlign=middle;resizable=0;points=[];autosize=1;strokeColor=none;fillColor=default;fontFamily=Lucida Console;fontSize=14;" parent="LSzqvkUK99cfRbp6Mw0R-57" vertex="1">
          <mxGeometry x="70" width="80" height="30" as="geometry" />
        </mxCell>
        <mxCell id="USdj_I0CaCp1iJVfZblM-9" value="&#xa;" style="swimlane;startSize=0;fontFamily=Lucida Console;fontSize=14;" parent="oLKlljd090616Nfrw5Nb-1" vertex="1">
          <mxGeometry x="-10" y="30" width="1120" height="30" as="geometry" />
        </mxCell>
        <mxCell id="USdj_I0CaCp1iJVfZblM-4" value="&#xa;" style="swimlane;startSize=0;fontFamily=Lucida Console;fontSize=14;" parent="oLKlljd090616Nfrw5Nb-1" vertex="1">
          <mxGeometry x="560" y="416" width="254" height="304" as="geometry" />
        </mxCell>
        <mxCell id="USdj_I0CaCp1iJVfZblM-5" value="&lt;div&gt;&lt;font color=&quot;#3399ff&quot;&gt;BIT results here: ...&lt;/font&gt;&lt;/div&gt;" style="text;html=1;align=left;verticalAlign=middle;resizable=0;points=[];autosize=1;strokeColor=none;fillColor=default;fontFamily=Lucida Console;fontSize=14;" parent="USdj_I0CaCp1iJVfZblM-4" vertex="1">
          <mxGeometry x="30" y="79" width="200" height="30" as="geometry" />
        </mxCell>
        <mxCell id="USdj_I0CaCp1iJVfZblM-7" value="&lt;span style=&quot;color: rgb(255, 51, 255);&quot;&gt;&lt;b&gt;[6] BIT&lt;br&gt;&lt;/b&gt;&lt;/span&gt;&lt;div&gt;&lt;span style=&quot;background-color: initial; color: rgb(0, 204, 0);&quot;&gt;✔&lt;/span&gt;&lt;span style=&quot;background-color: initial; color: rgb(0, 204, 0);&quot;&gt;&amp;nbsp;&amp;nbsp;&lt;/span&gt;&lt;span style=&quot;background-color: initial; color: rgb(0, 76, 153);&quot;&gt;PBIT &lt;/span&gt;&lt;b style=&quot;background-color: initial; color: rgb(0, 76, 153);&quot;&gt;(&lt;/b&gt;&lt;span style=&quot;background-color: initial;&quot;&gt;&lt;font style=&quot;&quot; color=&quot;#00cc00&quot;&gt;success&lt;/font&gt;&lt;/span&gt;&lt;b style=&quot;background-color: initial; color: rgb(0, 76, 153);&quot;&gt;)&lt;/b&gt;&lt;/div&gt;&lt;div&gt;&lt;span style=&quot;background-color: initial; color: rgb(0, 204, 0);&quot;&gt;✔&lt;/span&gt;&lt;span style=&quot;background-color: initial; color: rgb(0, 204, 0);&quot;&gt;&amp;nbsp;&amp;nbsp;&lt;/span&gt;&lt;span style=&quot;background-color: initial; color: rgb(0, 76, 153);&quot;&gt;CBIT &lt;/span&gt;&lt;b style=&quot;background-color: initial; color: rgb(0, 76, 153);&quot;&gt;(&lt;/b&gt;&lt;span style=&quot;background-color: initial;&quot;&gt;&lt;font style=&quot;&quot; color=&quot;#00cc00&quot;&gt;running&lt;/font&gt;&lt;/span&gt;&lt;b style=&quot;background-color: initial; color: rgb(0, 76, 153);&quot;&gt;)&lt;/b&gt;&lt;/div&gt;&lt;div&gt;&lt;span style=&quot;background-color: initial;&quot;&gt;&lt;font color=&quot;#ea6b66&quot;&gt;✖&lt;/font&gt;&lt;/span&gt;&lt;span style=&quot;background-color: initial; color: rgb(234, 107, 102);&quot;&gt;&amp;nbsp;&amp;nbsp;&lt;/span&gt;&lt;span style=&quot;color: rgb(0, 76, 153);&quot;&gt;IBIT &lt;/span&gt;&lt;b style=&quot;color: rgb(0, 76, 153);&quot;&gt;(&lt;/b&gt;&lt;font style=&quot;&quot; color=&quot;#ea6b66&quot;&gt;error&lt;/font&gt;&lt;b style=&quot;color: rgb(0, 76, 153);&quot;&gt;)&lt;/b&gt;&lt;/div&gt;" style="text;html=1;align=left;verticalAlign=middle;resizable=0;points=[];autosize=1;strokeColor=none;fillColor=default;fontFamily=Lucida Console;fontSize=14;" parent="USdj_I0CaCp1iJVfZblM-4" vertex="1">
          <mxGeometry x="70" y="-1" width="170" height="80" as="geometry" />
        </mxCell>
        <mxCell id="USdj_I0CaCp1iJVfZblM-29" value="" style="group" parent="oLKlljd090616Nfrw5Nb-1" vertex="1" connectable="0">
          <mxGeometry x="260" y="516" width="300" height="203" as="geometry" />
        </mxCell>
        <mxCell id="USdj_I0CaCp1iJVfZblM-27" value="" style="group" parent="USdj_I0CaCp1iJVfZblM-29" vertex="1" connectable="0">
          <mxGeometry width="300" height="203" as="geometry" />
        </mxCell>
        <mxCell id="0JCC86L8l436ZXqpCiF8-4" value="&lt;div&gt;&lt;font color=&quot;#ff33ff&quot;&gt;&lt;b&gt;[7] Setpoints&lt;/b&gt;&lt;/font&gt;&lt;/div&gt;&lt;div&gt;&lt;span style=&quot;color: rgb(0, 76, 153);&quot;&gt;&lt;b&gt;Rate&amp;nbsp;&amp;nbsp;&lt;/b&gt;&lt;/span&gt;&lt;/div&gt;&lt;div&gt;&lt;font color=&quot;#3399ff&quot;&gt;t&amp;nbsp; &amp;nbsp;|&amp;nbsp;&lt;/font&gt;&lt;font color=&quot;#3399ff&quot; style=&quot;background-color: initial;&quot;&gt;n(rpm) |&amp;nbsp;&lt;/font&gt;&lt;span style=&quot;background-color: initial;&quot;&gt;&lt;font color=&quot;#3399ff&quot;&gt;△&lt;/font&gt;&lt;/span&gt;&lt;font color=&quot;#3399ff&quot;&gt;T(&lt;/font&gt;&lt;span style=&quot;background-color: initial; color: rgb(51, 153, 255);&quot;&gt;s) | Tdur(m)&lt;/span&gt;&lt;/div&gt;&lt;div&gt;&lt;font style=&quot;background-color: initial;&quot; color=&quot;#3399ff&quot;&gt;T-2 |&amp;nbsp;&lt;/font&gt;&lt;span style=&quot;background-color: initial; color: rgb(51, 153, 255);&quot;&gt;10&amp;nbsp; &amp;nbsp; &amp;nbsp;| 60&amp;nbsp; &amp;nbsp; &amp;nbsp;| 30&lt;/span&gt;&lt;/div&gt;&lt;div&gt;&lt;font color=&quot;#3399ff&quot;&gt;T-1 | 30&amp;nbsp; &amp;nbsp; &amp;nbsp;| 10&amp;nbsp; &amp;nbsp; &amp;nbsp;| 15&amp;nbsp;&lt;/font&gt;&lt;/div&gt;&lt;div&gt;&lt;font color=&quot;#00cc00&quot;&gt;T&amp;nbsp; &amp;nbsp;| 05&amp;nbsp; &amp;nbsp; &amp;nbsp;| inf&amp;nbsp; &amp;nbsp; | n/a&lt;/font&gt;&lt;/div&gt;&lt;div&gt;&lt;font color=&quot;#3399ff&quot;&gt;T+1 | 30&amp;nbsp; &amp;nbsp; &amp;nbsp;| 10&amp;nbsp; &amp;nbsp; &amp;nbsp;| 5&lt;/font&gt;&lt;/div&gt;&lt;div&gt;&lt;font color=&quot;#3399ff&quot;&gt;T+2 | 15&amp;nbsp; &amp;nbsp; &amp;nbsp;| 05&amp;nbsp; &amp;nbsp; &amp;nbsp;| 3&lt;/font&gt;&lt;/div&gt;&lt;div&gt;&lt;br&gt;&lt;/div&gt;" style="text;html=1;align=left;verticalAlign=middle;resizable=0;points=[];autosize=1;strokeColor=none;fillColor=default;fontFamily=Lucida Console;fontSize=14;" parent="USdj_I0CaCp1iJVfZblM-27" vertex="1">
          <mxGeometry x="10" width="280" height="160" as="geometry" />
        </mxCell>
        <mxCell id="USdj_I0CaCp1iJVfZblM-20" value="&#xa;" style="swimlane;startSize=0;fontFamily=Lucida Console;fontSize=14;" parent="USdj_I0CaCp1iJVfZblM-27" vertex="1">
          <mxGeometry width="300" height="203" as="geometry" />
        </mxCell>
        <mxCell id="USdj_I0CaCp1iJVfZblM-28" value="" style="group" parent="USdj_I0CaCp1iJVfZblM-29" vertex="1" connectable="0">
          <mxGeometry x="10" y="160" width="280" height="30" as="geometry" />
        </mxCell>
        <mxCell id="USdj_I0CaCp1iJVfZblM-14" value="&#xa;" style="swimlane;startSize=0;fontFamily=Lucida Console;fontSize=14;" parent="USdj_I0CaCp1iJVfZblM-28" vertex="1">
          <mxGeometry width="100" height="30" as="geometry" />
        </mxCell>
        <mxCell id="USdj_I0CaCp1iJVfZblM-15" value="&lt;div&gt;&lt;font color=&quot;#3399ff&quot;&gt;val:&amp;nbsp;&lt;/font&gt;&lt;/div&gt;" style="text;html=1;align=left;verticalAlign=middle;resizable=0;points=[];autosize=1;strokeColor=none;fillColor=default;fontFamily=Lucida Console;fontSize=14;" parent="USdj_I0CaCp1iJVfZblM-14" vertex="1">
          <mxGeometry x="10" width="70" height="30" as="geometry" />
        </mxCell>
        <mxCell id="USdj_I0CaCp1iJVfZblM-18" value="&#xa;" style="swimlane;startSize=0;fontFamily=Lucida Console;fontSize=14;" parent="USdj_I0CaCp1iJVfZblM-28" vertex="1">
          <mxGeometry x="100" width="180" height="30" as="geometry" />
        </mxCell>
        <mxCell id="USdj_I0CaCp1iJVfZblM-19" value="&lt;span style=&quot;background-color: initial;&quot;&gt;&lt;font color=&quot;#3399ff&quot;&gt;△&lt;/font&gt;&lt;/span&gt;&lt;font style=&quot;background-color: initial;&quot; color=&quot;#3399ff&quot;&gt;T (in[F]):&amp;nbsp;&lt;/font&gt;" style="text;html=1;align=left;verticalAlign=middle;resizable=0;points=[];autosize=1;strokeColor=none;fillColor=default;fontFamily=Lucida Console;fontSize=14;" parent="USdj_I0CaCp1iJVfZblM-18" vertex="1">
          <mxGeometry x="10" width="130" height="30" as="geometry" />
        </mxCell>
        <mxCell id="USdj_I0CaCp1iJVfZblM-30" value="&#xa;" style="swimlane;startSize=0;fontFamily=Lucida Console;fontSize=14;" parent="oLKlljd090616Nfrw5Nb-1" vertex="1">
          <mxGeometry x="815" y="78" width="295" height="522" as="geometry" />
        </mxCell>
        <mxCell id="LSzqvkUK99cfRbp6Mw0R-72" value="&lt;div&gt;&lt;span style=&quot;color: rgb(255, 51, 255); background-color: initial;&quot;&gt;&lt;b&gt;[4] Comms&lt;/b&gt;&lt;/span&gt;&lt;/div&gt;&lt;div&gt;&lt;span style=&quot;background-color: initial;&quot;&gt;&lt;font color=&quot;#00cc00&quot;&gt;✔&amp;nbsp;&amp;nbsp;&lt;/font&gt;&lt;/span&gt;&lt;span style=&quot;background-color: initial; color: rgb(51, 153, 255);&quot;&gt;IntCAN&lt;/span&gt;&lt;/div&gt;&lt;div&gt;&lt;span style=&quot;color: rgb(0, 204, 0); background-color: initial;&quot;&gt;✔&amp;nbsp;&amp;nbsp;&lt;/span&gt;&lt;font color=&quot;#3399ff&quot;&gt;CANopen&lt;/font&gt;&lt;/div&gt;&lt;div&gt;&lt;span style=&quot;color: rgb(0, 204, 0); background-color: initial;&quot;&gt;✔&lt;/span&gt;&lt;span style=&quot;background-color: initial; color: rgb(0, 204, 0);&quot;&gt;&amp;nbsp;&amp;nbsp;&lt;/span&gt;&lt;font style=&quot;background-color: initial;&quot; color=&quot;#3399ff&quot;&gt;TCP&lt;/font&gt;&lt;/div&gt;&lt;div&gt;&lt;span style=&quot;background-color: initial;&quot;&gt;&lt;font color=&quot;#ea6b66&quot;&gt;✖&lt;/font&gt;&lt;/span&gt;&lt;span style=&quot;background-color: initial; color: rgb(234, 107, 102);&quot;&gt;&amp;nbsp;&amp;nbsp;&lt;/span&gt;&lt;font style=&quot;background-color: initial;&quot; color=&quot;#3399ff&quot;&gt;UDP&lt;/font&gt;&lt;/div&gt;&lt;div&gt;&lt;span style=&quot;color: rgb(0, 204, 0); background-color: initial;&quot;&gt;✔&lt;/span&gt;&lt;span style=&quot;background-color: initial;&quot;&gt;&lt;font color=&quot;#3399ff&quot;&gt;&amp;nbsp;&amp;nbsp;&lt;/font&gt;&lt;/span&gt;&lt;font color=&quot;#3399ff&quot;&gt;UART&amp;nbsp;&lt;/font&gt;&lt;/div&gt;&lt;div&gt;&lt;br&gt;&lt;/div&gt;" style="text;html=1;align=left;verticalAlign=middle;resizable=0;points=[];autosize=1;strokeColor=none;fillColor=default;fontFamily=Lucida Console;fontSize=14;" parent="USdj_I0CaCp1iJVfZblM-30" vertex="1">
          <mxGeometry x="64" width="110" height="130" as="geometry" />
        </mxCell>
        <mxCell id="USdj_I0CaCp1iJVfZblM-35" value="&lt;div&gt;&lt;font color=&quot;#3399ff&quot;&gt;Comms monitoring&amp;nbsp;&lt;/font&gt;&lt;/div&gt;&lt;div&gt;&lt;font color=&quot;#3399ff&quot;&gt;and&amp;nbsp;&lt;/font&gt;&lt;span style=&quot;color: rgb(51, 153, 255); background-color: initial;&quot;&gt;decoding here:&lt;/span&gt;&lt;/div&gt;" style="text;html=1;align=left;verticalAlign=middle;resizable=0;points=[];autosize=1;strokeColor=none;fillColor=default;fontFamily=Lucida Console;fontSize=14;" parent="USdj_I0CaCp1iJVfZblM-30" vertex="1">
          <mxGeometry x="19" y="120" width="180" height="50" as="geometry" />
        </mxCell>
        <mxCell id="USdj_I0CaCp1iJVfZblM-36" value="&#xa;" style="swimlane;startSize=0;fontFamily=Lucida Console;fontSize=14;" parent="oLKlljd090616Nfrw5Nb-1" vertex="1">
          <mxGeometry x="-10" width="1120" height="30" as="geometry" />
        </mxCell>
        <mxCell id="USdj_I0CaCp1iJVfZblM-37" value="&#xa;" style="swimlane;startSize=0;fontFamily=Lucida Console;fontSize=14;" parent="oLKlljd090616Nfrw5Nb-1" vertex="1">
          <mxGeometry x="260" y="415" width="300" height="101" as="geometry" />
        </mxCell>
        <mxCell id="USdj_I0CaCp1iJVfZblM-39" value="&lt;div&gt;&lt;font color=&quot;#3399ff&quot;&gt;TODO...&lt;/font&gt;&lt;/div&gt;" style="text;html=1;align=left;verticalAlign=middle;resizable=0;points=[];autosize=1;strokeColor=none;fillColor=default;fontFamily=Lucida Console;fontSize=14;" parent="USdj_I0CaCp1iJVfZblM-37" vertex="1">
          <mxGeometry x="20" y="50" width="80" height="30" as="geometry" />
        </mxCell>
        <mxCell id="USdj_I0CaCp1iJVfZblM-40" value="&lt;span style=&quot;color: rgb(255, 51, 255);&quot;&gt;&lt;b&gt;[5] Profiles&lt;/b&gt;&lt;/span&gt;" style="text;html=1;align=left;verticalAlign=middle;resizable=0;points=[];autosize=1;strokeColor=none;fillColor=default;fontFamily=Lucida Console;fontSize=14;" parent="USdj_I0CaCp1iJVfZblM-37" vertex="1">
          <mxGeometry x="70" width="130" height="30" as="geometry" />
        </mxCell>
        <mxCell id="USdj_I0CaCp1iJVfZblM-1" style="edgeStyle=orthogonalEdgeStyle;rounded=0;orthogonalLoop=1;jettySize=auto;html=1;entryX=0.606;entryY=0.027;entryDx=0;entryDy=0;entryPerimeter=0;" parent="1" source="0JCC86L8l436ZXqpCiF8-7" target="0JCC86L8l436ZXqpCiF8-4" edge="1">
          <mxGeometry relative="1" as="geometry" />
        </mxCell>
        <mxCell id="USdj_I0CaCp1iJVfZblM-25" value="&lt;div style=&quot;text-align: center;&quot;&gt;&lt;span style=&quot;background-color: initial; font-size: 14px;&quot;&gt;&lt;font face=&quot;Lucida Console&quot;&gt;Only shown when in&lt;/font&gt;&lt;/span&gt;&lt;/div&gt;&lt;div style=&quot;text-align: center;&quot;&gt;&lt;span style=&quot;background-color: initial; font-size: 14px;&quot;&gt;&lt;font face=&quot;Lucida Console&quot;&gt;these states&lt;/font&gt;&lt;/span&gt;&lt;/div&gt;" style="text;whiteSpace=wrap;html=1;" parent="1" vertex="1">
          <mxGeometry x="-150" y="267" width="80" height="40" as="geometry" />
        </mxCell>
        <mxCell id="USdj_I0CaCp1iJVfZblM-26" style="edgeStyle=orthogonalEdgeStyle;rounded=0;orthogonalLoop=1;jettySize=auto;html=1;entryX=0.667;entryY=0.559;entryDx=0;entryDy=0;entryPerimeter=0;" parent="1" source="USdj_I0CaCp1iJVfZblM-25" target="LSzqvkUK99cfRbp6Mw0R-17" edge="1">
          <mxGeometry relative="1" as="geometry" />
        </mxCell>
      </root>
    </mxGraphModel>
  </diagram>
</mxfile>
